<svg width="31" height="35" viewBox="0 0 31 35" fill="none" xmlns="http://www.w3.org/2000/svg">
<path d="M8.33586 32.0076L5.83586 34.5076C3.8916 33.7834 4.8916 33.2834 6.83586 30.5076C7.69642 29.2791 -3.10833 18.2834 0.89167 17.2834C4.09167 16.4834 9.5 28 10 27.5C10.5 27 11 26.5 10.8915 25.5077C9.10902 23.7548 2.83586 13.5076 5.83586 10.5076C8.23586 8.10761 12.0582 18.1167 12.8915 23.2834L14.8359 19.5077C12.6692 16.1743 8.63586 8.80761 9.83586 6.00761C11.0359 3.20761 13.2249 7.11667 14.3916 9.78334C15.5583 12.7331 17.3359 17.6628 17.3359 13.7833C17.3359 8.93402 19.8916 0.283428 23.3359 0.00765514C26.8588 -0.274417 26.3916 7.28345 19.8916 15.2834C23.8916 14.1167 29.8916 12.2834 30.3916 15.2834C30.9218 18.4645 21.0025 19.0077 17.3359 19.5077L15.8359 21.5077C20.1692 20.5077 28.8916 20.7834 28.8916 23.2834C28.8916 26.2834 18.8916 26.45 13.8916 25.7834L11.8916 28.7834C16.5583 28.1167 23.4473 28.5591 22.8916 31.2834C22.247 34.4432 12.6692 32.6743 8.33586 32.0076Z" fill="#C3D5CD"/>
</svg>
